# MagicaVoxel @ Ephtracy

# group
o 

# material
mtllib Yu.mtl
usemtl palette

# normals
vn -1 0 0
vn 1 0 0
vn 0 0 1
vn 0 0 -1
vn 0 -1 0
vn 0 1 0

# texcoords
vt 0.0332031 0.5
vt 0.958984 0.5
vt 0.982422 0.5
vt 0.986328 0.5
vt 0.990234 0.5

# verts
v -0.6 1.7 0.1
v -0.6 1.7 0
v -0.6 1.8 0.1
v -0.6 1.8 0
v -0.4 1.9 0
v -0.4 1.9 -0.3
v -0.4 2 0.1
v -0.4 2 0
v -0.4 2.1 0.1
v -0.4 2.1 0
v -0.4 2.2 0.2
v -0.4 2.2 0.1
v -0.4 2.3 0.4
v -0.4 2.3 0.2
v -0.4 2.3 0.1
v -0.4 2.3 0
v -0.4 2.4 0.4
v -0.4 2.4 -0.3
v -0.3 1.9 0.3
v -0.3 1.9 0
v -0.3 2 0.1
v -0.3 2 0
v -0.3 2.1 0.1
v -0.3 2.2 0.2
v -0.3 2.2 0.1
v -0.3 2.3 0.3
v -0.3 2.3 0.2
v -0.3 2.4 0.3
v -0.3 2.4 -0.2
v -0.3 2.5 0.3
v -0.3 2.5 -0.2
v -0.2 1 0.2
v -0.2 1 0
v -0.2 1.1 0.2
v -0.2 1.1 0.1
v -0.2 1.1 0
v -0.2 1.2 0.1
v -0.2 1.2 0
v -0.2 1.4 0.2
v -0.2 1.4 0.1
v -0.2 1.4 0
v -0.2 1.4 -0.1
v -0.2 1.5 0.2
v -0.2 1.5 -0.1
v -0.2 1.7 0.1
v -0.2 1.7 0
v -0.2 1.8 0.2
v -0.2 1.8 0.1
v -0.2 1.8 0
v -0.2 1.8 -0.1
v -0.1 1.8 0.1
v -0.1 1.8 0
v -0.1 1.9 0.1
v -0.1 1.9 0
v 0.1 1 0.2
v 0.1 1 0
v 0.1 1.1 0.2
v 0.1 1.1 0.1
v 0.1 1.1 0
v 0.1 1.2 0.1
v 0.1 1.2 0
v 0.1 1.4 0.1
v 0.1 1.4 0
v -0.1 1 0.2
v -0.1 1 0
v -0.1 1.1 0.2
v -0.1 1.1 0.1
v -0.1 1.1 0
v -0.1 1.2 0.1
v -0.1 1.2 0
v -0.1 1.4 0.1
v -0.1 1.4 0
v 0.1 1.8 0.1
v 0.1 1.8 0
v 0.1 1.9 0.1
v 0.1 1.9 0
v 0.2 1 0.2
v 0.2 1 0
v 0.2 1.1 0.2
v 0.2 1.1 0.1
v 0.2 1.1 0
v 0.2 1.2 0.1
v 0.2 1.2 0
v 0.2 1.4 0.2
v 0.2 1.4 0.1
v 0.2 1.4 0
v 0.2 1.4 -0.1
v 0.2 1.5 0.2
v 0.2 1.5 -0.1
v 0.2 1.7 0.1
v 0.2 1.7 0
v 0.2 1.8 0.2
v 0.2 1.8 0.1
v 0.2 1.8 0
v 0.2 1.8 -0.1
v 0.3 1.9 0.3
v 0.3 1.9 0
v 0.3 2 0.1
v 0.3 2 0
v 0.3 2.1 0.1
v 0.3 2.2 0.2
v 0.3 2.2 0.1
v 0.3 2.3 0.3
v 0.3 2.3 0.2
v 0.3 2.4 0.3
v 0.3 2.4 -0.2
v 0.3 2.5 0.3
v 0.3 2.5 -0.2
v 0.4 1.9 0
v 0.4 1.9 -0.3
v 0.4 2 0.1
v 0.4 2 0
v 0.4 2.1 0.1
v 0.4 2.1 0
v 0.4 2.2 0.2
v 0.4 2.2 0.1
v 0.4 2.3 0.4
v 0.4 2.3 0.2
v 0.4 2.3 0.1
v 0.4 2.3 0
v 0.4 2.4 0.4
v 0.4 2.4 -0.3
v 0.6 1.7 0.1
v 0.6 1.7 0
v 0.6 1.8 0.1
v 0.6 1.8 0
v -0.4 2.3 0.4
v -0.4 2.4 0.4
v 0.4 2.3 0.4
v 0.4 2.4 0.4
v -0.3 1.9 0.3
v -0.3 2.3 0.3
v -0.3 2.4 0.3
v -0.3 2.5 0.3
v -0.2 2.1 0.3
v -0.2 2.3 0.3
v -0.1 2.1 0.3
v -0.1 2.3 0.3
v 0.1 2.1 0.3
v 0.1 2.3 0.3
v 0.2 2.1 0.3
v 0.2 2.3 0.3
v 0.3 1.9 0.3
v 0.3 2.3 0.3
v 0.3 2.4 0.3
v 0.3 2.5 0.3
v -0.4 2.2 0.2
v -0.4 2.3 0.2
v -0.3 2.2 0.2
v -0.3 2.3 0.2
v -0.2 1 0.2
v -0.2 1.1 0.2
v -0.2 1.4 0.2
v -0.2 1.5 0.2
v -0.2 1.8 0.2
v -0.1 1 0.2
v -0.1 1.1 0.2
v 0.1 1 0.2
v 0.1 1.1 0.2
v 0.2 1 0.2
v 0.2 1.1 0.2
v 0.2 1.4 0.2
v 0.2 1.5 0.2
v 0.2 1.8 0.2
v 0.3 2.2 0.2
v 0.3 2.3 0.2
v 0.4 2.2 0.2
v 0.4 2.3 0.2
v -0.6 1.7 0.1
v -0.6 1.8 0.1
v -0.4 1.7 0.1
v -0.4 1.8 0.1
v -0.4 2 0.1
v -0.4 2.1 0.1
v -0.4 2.2 0.1
v -0.3 2 0.1
v -0.3 2.1 0.1
v -0.3 2.2 0.1
v -0.2 1.1 0.1
v -0.2 1.2 0.1
v -0.2 1.4 0.1
v -0.2 1.7 0.1
v -0.2 1.8 0.1
v -0.1 1.1 0.1
v -0.1 1.2 0.1
v -0.1 1.4 0.1
v -0.1 1.8 0.1
v -0.1 1.9 0.1
v 0.1 1.1 0.1
v 0.1 1.2 0.1
v 0.1 1.4 0.1
v 0.1 1.8 0.1
v 0.1 1.9 0.1
v 0.2 1.1 0.1
v 0.2 1.2 0.1
v 0.2 1.4 0.1
v 0.2 1.7 0.1
v 0.2 1.8 0.1
v 0.3 2 0.1
v 0.3 2.1 0.1
v 0.3 2.2 0.1
v 0.4 1.7 0.1
v 0.4 1.8 0.1
v 0.4 2 0.1
v 0.4 2.1 0.1
v 0.4 2.2 0.1
v 0.6 1.7 0.1
v 0.6 1.8 0.1
v -0.4 1.9 0
v -0.4 2 0
v -0.3 1.9 0
v -0.3 2 0
v 0.3 1.9 0
v 0.3 2 0
v 0.4 1.9 0
v 0.4 2 0
v -0.6 1.7 0
v -0.6 1.8 0
v -0.4 1.7 0
v -0.4 1.8 0
v -0.2 1 0
v -0.2 1.1 0
v -0.2 1.2 0
v -0.2 1.4 0
v -0.2 1.7 0
v -0.2 1.8 0
v -0.1 1 0
v -0.1 1.1 0
v -0.1 1.2 0
v -0.1 1.4 0
v -0.1 1.8 0
v -0.1 1.9 0
v 0.1 1 0
v 0.1 1.1 0
v 0.1 1.2 0
v 0.1 1.4 0
v 0.1 1.8 0
v 0.1 1.9 0
v 0.2 1 0
v 0.2 1.1 0
v 0.2 1.2 0
v 0.2 1.4 0
v 0.2 1.7 0
v 0.2 1.8 0
v 0.4 1.7 0
v 0.4 1.8 0
v 0.6 1.7 0
v 0.6 1.8 0
v -0.2 1.4 -0.1
v -0.2 1.5 -0.1
v -0.2 1.8 -0.1
v 0.2 1.4 -0.1
v 0.2 1.5 -0.1
v 0.2 1.8 -0.1
v -0.3 2.4 -0.2
v -0.3 2.5 -0.2
v 0.3 2.4 -0.2
v 0.3 2.5 -0.2
v -0.4 1.9 -0.3
v -0.4 2.4 -0.3
v 0.4 1.9 -0.3
v 0.4 2.4 -0.3
v -0.2 1 0.2
v -0.1 1 0.2
v 0.1 1 0.2
v 0.2 1 0.2
v -0.2 1 0
v -0.1 1 0
v 0.1 1 0
v 0.2 1 0
v -0.2 1.4 0.2
v 0.2 1.4 0.2
v -0.2 1.4 0.1
v -0.1 1.4 0.1
v 0.1 1.4 0.1
v 0.2 1.4 0.1
v -0.2 1.4 0
v -0.1 1.4 0
v 0.1 1.4 0
v 0.2 1.4 0
v -0.2 1.4 -0.1
v 0.2 1.4 -0.1
v -0.6 1.7 0.1
v -0.4 1.7 0.1
v -0.2 1.7 0.1
v 0.2 1.7 0.1
v 0.4 1.7 0.1
v 0.6 1.7 0.1
v -0.6 1.7 0
v -0.4 1.7 0
v -0.2 1.7 0
v 0.2 1.7 0
v 0.4 1.7 0
v 0.6 1.7 0
v -0.3 1.9 0.3
v 0.3 1.9 0.3
v -0.1 1.9 0.1
v 0.1 1.9 0.1
v -0.4 1.9 0
v -0.3 1.9 0
v -0.1 1.9 0
v 0.1 1.9 0
v 0.3 1.9 0
v 0.4 1.9 0
v -0.3 1.9 -0.2
v 0.3 1.9 -0.2
v -0.4 1.9 -0.3
v 0.4 1.9 -0.3
v -0.4 2 0.1
v -0.3 2 0.1
v 0.3 2 0.1
v 0.4 2 0.1
v -0.4 2 0
v -0.3 2 0
v 0.3 2 0
v 0.4 2 0
v -0.4 2.2 0.2
v -0.3 2.2 0.2
v 0.3 2.2 0.2
v 0.4 2.2 0.2
v -0.4 2.2 0.1
v -0.3 2.2 0.1
v 0.3 2.2 0.1
v 0.4 2.2 0.1
v -0.4 2.3 0.4
v 0.4 2.3 0.4
v -0.3 2.3 0.3
v -0.2 2.3 0.3
v -0.1 2.3 0.3
v 0.1 2.3 0.3
v 0.2 2.3 0.3
v 0.3 2.3 0.3
v -0.4 2.3 0.2
v -0.3 2.3 0.2
v 0.3 2.3 0.2
v 0.4 2.3 0.2
v -0.2 1.1 0.2
v -0.1 1.1 0.2
v 0.1 1.1 0.2
v 0.2 1.1 0.2
v -0.2 1.1 0.1
v -0.1 1.1 0.1
v 0.1 1.1 0.1
v 0.2 1.1 0.1
v -0.2 1.8 0.2
v 0.2 1.8 0.2
v -0.6 1.8 0.1
v -0.4 1.8 0.1
v -0.2 1.8 0.1
v -0.1 1.8 0.1
v 0.1 1.8 0.1
v 0.2 1.8 0.1
v 0.4 1.8 0.1
v 0.6 1.8 0.1
v -0.6 1.8 0
v -0.4 1.8 0
v -0.2 1.8 0
v -0.1 1.8 0
v 0.1 1.8 0
v 0.2 1.8 0
v 0.4 1.8 0
v 0.6 1.8 0
v -0.2 1.8 -0.1
v 0.2 1.8 -0.1
v -0.4 2.4 0.4
v 0.4 2.4 0.4
v -0.3 2.4 0.3
v 0.3 2.4 0.3
v -0.3 2.4 -0.2
v 0.3 2.4 -0.2
v -0.4 2.4 -0.3
v 0.4 2.4 -0.3
v -0.3 2.5 0.3
v 0.3 2.5 0.3
v -0.3 2.5 -0.2
v 0.3 2.5 -0.2

# faces
f 3/1/1 2/1/1 1/1/1
f 4/1/1 2/1/1 3/1/1
f 8/4/1 6/4/1 5/4/1
f 9/4/1 8/4/1 7/4/1
f 10/4/1 6/4/1 8/4/1
f 10/4/1 8/4/1 9/4/1
f 12/1/1 10/1/1 9/1/1
f 14/4/1 12/4/1 11/4/1
f 15/1/1 10/1/1 12/1/1
f 15/4/1 12/4/1 14/4/1
f 16/4/1 6/4/1 10/4/1
f 16/1/1 10/1/1 15/1/1
f 17/4/1 15/4/1 14/4/1
f 17/4/1 14/4/1 13/4/1
f 17/4/1 16/4/1 15/4/1
f 18/4/1 6/4/1 16/4/1
f 18/4/1 16/4/1 17/4/1
f 21/1/1 20/1/1 19/1/1
f 22/1/1 20/1/1 21/1/1
f 23/1/1 21/1/1 19/1/1
f 24/1/1 23/1/1 19/1/1
f 25/1/1 23/1/1 24/1/1
f 26/1/1 24/1/1 19/1/1
f 27/1/1 24/1/1 26/1/1
f 30/4/1 29/4/1 28/4/1
f 31/4/1 29/4/1 30/4/1
f 34/3/1 33/3/1 32/3/1
f 35/3/1 33/3/1 34/3/1
f 36/3/1 33/3/1 35/3/1
f 37/2/1 36/2/1 35/2/1
f 38/2/1 36/2/1 37/2/1
f 40/5/1 38/5/1 37/5/1
f 41/5/1 38/5/1 40/5/1
f 43/5/1 41/5/1 40/5/1
f 43/5/1 42/5/1 41/5/1
f 43/5/1 40/5/1 39/5/1
f 44/5/1 42/5/1 43/5/1
f 45/2/1 44/2/1 43/2/1
f 46/2/1 44/2/1 45/2/1
f 47/2/1 45/2/1 43/2/1
f 48/2/1 45/2/1 47/2/1
f 49/2/1 44/2/1 46/2/1
f 50/2/1 44/2/1 49/2/1
f 53/1/1 52/1/1 51/1/1
f 54/1/1 52/1/1 53/1/1
f 57/3/1 56/3/1 55/3/1
f 58/3/1 56/3/1 57/3/1
f 59/3/1 56/3/1 58/3/1
f 60/2/1 59/2/1 58/2/1
f 61/2/1 59/2/1 60/2/1
f 62/5/1 61/5/1 60/5/1
f 63/5/1 61/5/1 62/5/1
f 64/3/2 65/3/2 66/3/2
f 66/3/2 65/3/2 67/3/2
f 67/3/2 65/3/2 68/3/2
f 67/2/2 68/2/2 69/2/2
f 69/2/2 68/2/2 70/2/2
f 69/5/2 70/5/2 71/5/2
f 71/5/2 70/5/2 72/5/2
f 73/1/2 74/1/2 75/1/2
f 75/1/2 74/1/2 76/1/2
f 77/3/2 78/3/2 79/3/2
f 79/3/2 78/3/2 80/3/2
f 80/3/2 78/3/2 81/3/2
f 80/2/2 81/2/2 82/2/2
f 82/2/2 81/2/2 83/2/2
f 82/5/2 83/5/2 85/5/2
f 85/5/2 83/5/2 86/5/2
f 85/5/2 86/5/2 88/5/2
f 86/5/2 87/5/2 88/5/2
f 84/5/2 85/5/2 88/5/2
f 88/5/2 87/5/2 89/5/2
f 88/2/2 89/2/2 90/2/2
f 90/2/2 89/2/2 91/2/2
f 88/2/2 90/2/2 92/2/2
f 92/2/2 90/2/2 93/2/2
f 91/2/2 89/2/2 94/2/2
f 94/2/2 89/2/2 95/2/2
f 96/1/2 97/1/2 98/1/2
f 98/1/2 97/1/2 99/1/2
f 96/1/2 98/1/2 100/1/2
f 96/1/2 100/1/2 101/1/2
f 101/1/2 100/1/2 102/1/2
f 96/1/2 101/1/2 103/1/2
f 103/1/2 101/1/2 104/1/2
f 105/4/2 106/4/2 107/4/2
f 107/4/2 106/4/2 108/4/2
f 109/4/2 110/4/2 112/4/2
f 111/4/2 112/4/2 113/4/2
f 112/4/2 110/4/2 114/4/2
f 113/4/2 112/4/2 114/4/2
f 113/1/2 114/1/2 116/1/2
f 115/4/2 116/4/2 118/4/2
f 116/1/2 114/1/2 119/1/2
f 118/4/2 116/4/2 119/4/2
f 114/4/2 110/4/2 120/4/2
f 119/1/2 114/1/2 120/1/2
f 118/4/2 119/4/2 121/4/2
f 117/4/2 118/4/2 121/4/2
f 119/4/2 120/4/2 121/4/2
f 120/4/2 110/4/2 122/4/2
f 121/4/2 120/4/2 122/4/2
f 123/1/2 124/1/2 125/1/2
f 125/1/2 124/1/2 126/1/2
f 129/4/3 128/4/3 127/4/3
f 130/4/3 128/4/3 129/4/3
f 135/1/3 132/1/3 131/1/3
f 136/1/3 132/1/3 135/1/3
f 137/1/3 135/1/3 131/1/3
f 137/5/3 136/5/3 135/5/3
f 138/5/3 136/5/3 137/5/3
f 139/1/3 137/1/3 131/1/3
f 139/1/3 138/1/3 137/1/3
f 140/1/3 138/1/3 139/1/3
f 141/1/3 139/1/3 131/1/3
f 141/5/3 140/5/3 139/5/3
f 142/5/3 140/5/3 141/5/3
f 143/1/3 141/1/3 131/1/3
f 143/1/3 142/1/3 141/1/3
f 144/1/3 142/1/3 143/1/3
f 145/4/3 134/4/3 133/4/3
f 146/4/3 134/4/3 145/4/3
f 149/4/3 148/4/3 147/4/3
f 150/4/3 148/4/3 149/4/3
f 156/3/3 152/3/3 151/3/3
f 157/3/3 152/3/3 156/3/3
f 160/3/3 159/3/3 158/3/3
f 161/3/3 159/3/3 160/3/3
f 162/5/3 154/5/3 153/5/3
f 163/2/3 155/2/3 154/2/3
f 163/5/3 154/5/3 162/5/3
f 164/2/3 155/2/3 163/2/3
f 167/4/3 166/4/3 165/4/3
f 168/4/3 166/4/3 167/4/3
f 171/1/3 170/1/3 169/1/3
f 172/1/3 170/1/3 171/1/3
f 176/4/3 174/4/3 173/4/3
f 177/1/3 175/1/3 174/1/3
f 177/4/3 174/4/3 176/4/3
f 178/1/3 175/1/3 177/1/3
f 182/2/3 172/2/3 171/2/3
f 183/2/3 172/2/3 182/2/3
f 184/2/3 180/2/3 179/2/3
f 185/5/3 181/5/3 180/5/3
f 185/2/3 180/2/3 184/2/3
f 186/5/3 181/5/3 185/5/3
f 192/1/3 188/1/3 187/1/3
f 193/1/3 188/1/3 192/1/3
f 194/2/3 190/2/3 189/2/3
f 195/5/3 191/5/3 190/5/3
f 195/2/3 190/2/3 194/2/3
f 196/5/3 191/5/3 195/5/3
f 202/2/3 198/2/3 197/2/3
f 203/2/3 198/2/3 202/2/3
f 204/4/3 200/4/3 199/4/3
f 205/1/3 201/1/3 200/1/3
f 205/4/3 200/4/3 204/4/3
f 206/1/3 201/1/3 205/1/3
f 207/1/3 203/1/3 202/1/3
f 208/1/3 203/1/3 207/1/3
f 211/4/3 210/4/3 209/4/3
f 212/4/3 210/4/3 211/4/3
f 215/4/3 214/4/3 213/4/3
f 216/4/3 214/4/3 215/4/3
f 217/1/4 218/1/4 219/1/4
f 219/1/4 218/1/4 220/1/4
f 219/2/4 220/2/4 225/2/4
f 225/2/4 220/2/4 226/2/4
f 221/3/4 222/3/4 227/3/4
f 222/2/4 223/2/4 228/2/4
f 227/3/4 222/3/4 228/3/4
f 223/5/4 224/5/4 229/5/4
f 228/2/4 223/2/4 229/2/4
f 229/5/4 224/5/4 230/5/4
f 231/1/4 232/1/4 237/1/4
f 237/1/4 232/1/4 238/1/4
f 233/3/4 234/3/4 239/3/4
f 234/2/4 235/2/4 240/2/4
f 239/3/4 234/3/4 240/3/4
f 235/5/4 236/5/4 241/5/4
f 240/2/4 235/2/4 241/2/4
f 241/5/4 236/5/4 242/5/4
f 243/2/4 244/2/4 245/2/4
f 245/2/4 244/2/4 246/2/4
f 245/1/4 246/1/4 247/1/4
f 247/1/4 246/1/4 248/1/4
f 249/5/4 250/5/4 252/5/4
f 250/2/4 251/2/4 253/2/4
f 252/5/4 250/5/4 253/5/4
f 253/2/4 251/2/4 254/2/4
f 255/4/4 256/4/4 257/4/4
f 257/4/4 256/4/4 258/4/4
f 259/4/4 260/4/4 261/4/4
f 261/4/4 260/4/4 262/4/4
f 267/3/5 264/3/5 263/3/5
f 268/3/5 264/3/5 267/3/5
f 269/3/5 266/3/5 265/3/5
f 270/3/5 266/3/5 269/3/5
f 273/5/5 272/5/5 271/5/5
f 274/5/5 272/5/5 273/5/5
f 275/5/5 272/5/5 274/5/5
f 276/5/5 272/5/5 275/5/5
f 278/5/5 275/5/5 274/5/5
f 279/5/5 275/5/5 278/5/5
f 281/5/5 278/5/5 277/5/5
f 281/5/5 280/5/5 279/5/5
f 281/5/5 279/5/5 278/5/5
f 282/5/5 280/5/5 281/5/5
f 289/1/5 284/1/5 283/1/5
f 290/2/5 285/2/5 284/2/5
f 290/1/5 284/1/5 289/1/5
f 291/2/5 285/2/5 290/2/5
f 292/2/5 287/2/5 286/2/5
f 293/1/5 288/1/5 287/1/5
f 293/2/5 287/2/5 292/2/5
f 294/1/5 288/1/5 293/1/5
f 297/1/5 296/1/5 295/1/5
f 298/1/5 296/1/5 297/1/5
f 300/1/5 297/1/5 295/1/5
f 301/1/5 297/1/5 300/1/5
f 302/1/5 296/1/5 298/1/5
f 303/1/5 296/1/5 302/1/5
f 305/1/5 301/1/5 300/1/5
f 305/4/5 300/4/5 299/4/5
f 305/1/5 303/1/5 302/1/5
f 305/1/5 302/1/5 301/1/5
f 306/4/5 304/4/5 303/4/5
f 306/1/5 303/1/5 305/1/5
f 307/4/5 305/4/5 299/4/5
f 307/4/5 306/4/5 305/4/5
f 308/4/5 304/4/5 306/4/5
f 308/4/5 306/4/5 307/4/5
f 313/4/5 310/4/5 309/4/5
f 314/4/5 310/4/5 313/4/5
f 315/4/5 312/4/5 311/4/5
f 316/4/5 312/4/5 315/4/5
f 321/4/5 318/4/5 317/4/5
f 322/4/5 318/4/5 321/4/5
f 323/4/5 320/4/5 319/4/5
f 324/4/5 320/4/5 323/4/5
f 327/4/5 326/4/5 325/4/5
f 328/4/5 326/4/5 327/4/5
f 329/4/5 326/4/5 328/4/5
f 330/4/5 326/4/5 329/4/5
f 331/4/5 326/4/5 330/4/5
f 332/4/5 326/4/5 331/4/5
f 333/4/5 327/4/5 325/4/5
f 334/4/5 327/4/5 333/4/5
f 335/4/5 326/4/5 332/4/5
f 336/4/5 326/4/5 335/4/5
f 337/3/6 338/3/6 341/3/6
f 341/3/6 338/3/6 342/3/6
f 339/3/6 340/3/6 343/3/6
f 343/3/6 340/3/6 344/3/6
f 345/2/6 346/2/6 349/2/6
f 349/2/6 346/2/6 350/2/6
f 350/2/6 346/2/6 351/2/6
f 351/2/6 346/2/6 352/2/6
f 347/1/6 348/1/6 355/1/6
f 348/2/6 349/2/6 356/2/6
f 355/1/6 348/1/6 356/1/6
f 349/2/6 350/2/6 356/2/6
f 356/2/6 350/2/6 357/2/6
f 357/2/6 350/2/6 358/2/6
f 351/2/6 352/2/6 359/2/6
f 352/2/6 353/2/6 359/2/6
f 359/2/6 353/2/6 360/2/6
f 353/1/6 354/1/6 361/1/6
f 360/2/6 353/2/6 361/2/6
f 361/1/6 354/1/6 362/1/6
f 359/2/6 360/2/6 363/2/6
f 357/2/6 358/2/6 363/2/6
f 358/2/6 359/2/6 363/2/6
f 363/2/6 360/2/6 364/2/6
f 365/4/6 366/4/6 367/4/6
f 367/4/6 366/4/6 368/4/6
f 365/4/6 367/4/6 369/4/6
f 368/4/6 366/4/6 370/4/6
f 365/4/6 369/4/6 371/4/6
f 369/4/6 370/4/6 371/4/6
f 370/4/6 366/4/6 372/4/6
f 371/4/6 370/4/6 372/4/6
f 373/4/6 374/4/6 375/4/6
f 375/4/6 374/4/6 376/4/6
